<?xml version="1.0" encoding="utf-8"?>
<!-- Generator: Adobe Illustrator 23.0.1, SVG Export Plug-In . SVG Version: 6.00 Build 0)  -->
<svg version="1.1" id="图层_1" xmlns="http://www.w3.org/2000/svg" xmlns:xlink="http://www.w3.org/1999/xlink" x="0px" y="0px"
	 viewBox="0 0 918 692.2" style="enable-background:new 0 0 918 692.2;" xml:space="preserve">
<style type="text/css">
	.st0{enable-background:new    ;}
</style>
<title>portfolioDesignWebcomics-01</title>
<path d="M915,3v686.2H3V3H915 M918,0H0v692.2h918V0z"/>
<rect x="7" y="6.3" width="21" height="21"/>
<rect x="891" y="6.3" width="21" height="21"/>
<rect x="7" y="664" width="21" height="21"/>
<rect x="891" y="664" width="21" height="21"/>
<g class="st0">
	<path d="M379.5,9.3h4v16h2c0.6,0,1-0.2,1.4-0.6s0.6-0.9,0.6-1.4v-14h4v16h2c0.5,0,1-0.2,1.4-0.6c0.4-0.4,0.6-0.9,0.6-1.4v-14h4
		v11.2c0,1.9-0.7,3.5-2,4.8c-1.3,1.3-2.9,2-4.8,2h-5.2v-0.6c-0.8,0.4-1.7,0.6-2.8,0.6h-5.2V9.3z"/>
	<path d="M403.5,27.3v-18h10v2h-6v6h4v2h-4v6h6v2H403.5z"/>
	<path d="M417.5,27.3v-18h8c1.1,0,2,0.4,2.8,1.2c0.8,0.8,1.2,1.7,1.2,2.8v1c0,1.2-0.3,2.1-1,2.8c-0.7,0.7-1.7,1.1-3,1.2
		c1.3,0,2.3,0.4,3,1.2c0.7,0.8,1,1.7,1,2.8v1c0,1.1-0.4,2-1.2,2.8c-0.8,0.8-1.7,1.2-2.8,1.2H417.5z M421.5,17.3h2
		c0.6,0,1-0.2,1.4-0.6c0.4-0.4,0.6-0.9,0.6-1.4v-2c0-0.6-0.2-1-0.6-1.4c-0.4-0.4-0.9-0.6-1.4-0.6h-2V17.3z M421.5,25.3h2
		c0.6,0,1-0.2,1.4-0.6s0.6-0.9,0.6-1.4v-2c0-1.3-0.7-2-2-2h-2V25.3z"/>
	<path d="M439.5,27.3v-18h8c1.1,0,2,0.4,2.8,1.2c0.8,0.8,1.2,1.7,1.2,2.8v2c0,1.1-0.4,2-1.2,2.8c-0.8,0.8-1.7,1.2-2.8,1.2h-4v8
		H439.5z M443.5,17.3h2c0.6,0,1-0.2,1.4-0.6c0.4-0.4,0.6-0.9,0.6-1.4v-2c0-0.6-0.2-1-0.6-1.4c-0.4-0.4-0.9-0.6-1.4-0.6h-2V17.3z"/>
	<path d="M455.5,27.3v-18h8c1.1,0,2,0.4,2.8,1.2s1.2,1.7,1.2,2.8v1.1c0,0.9-0.3,1.8-0.9,2.6c-0.6,0.8-1.6,1.2-3.1,1.2h2
		c0.5,0,1,0.2,1.4,0.6c0.4,0.4,0.6,0.9,0.6,1.4v7.1h-4v-6c0-0.5-0.2-1-0.6-1.4c-0.4-0.4-0.9-0.6-1.4-0.6h-2v8H455.5z M459.5,17.3h2
		c0.6,0,1-0.2,1.4-0.6c0.4-0.4,0.6-0.9,0.6-1.4v-2c0-0.6-0.2-1-0.6-1.4c-0.4-0.4-0.9-0.6-1.4-0.6h-2V17.3z"/>
	<path d="M475.5,9.3h4c1.1,0,2,0.4,2.8,1.2s1.2,1.7,1.2,2.8v10c0,1.1-0.4,2-1.2,2.8s-1.7,1.2-2.8,1.2h-4c-1.1,0-2-0.4-2.8-1.2
		s-1.2-1.7-1.2-2.8v-10c0-1.1,0.4-2,1.2-2.8C473.5,9.7,474.4,9.3,475.5,9.3z M475.5,13.3v10c0,0.5,0.2,1,0.6,1.4
		c0.4,0.4,0.9,0.6,1.4,0.6c0.6,0,1-0.2,1.4-0.6c0.4-0.4,0.6-0.9,0.6-1.4v-10c0-0.6-0.2-1-0.6-1.4c-0.4-0.4-0.9-0.6-1.4-0.6
		c-0.5,0-1,0.2-1.4,0.6C475.7,12.3,475.5,12.7,475.5,13.3z"/>
	<path d="M497.5,9.3v14c0,1.3-0.3,2.3-1,3s-1.7,1-3,1h-4c-1.3,0-2.3-0.3-3-1c-0.7-0.7-1-1.7-1-3v-4h4v4c0,0.6,0.2,1,0.6,1.4
		c0.4,0.4,0.9,0.6,1.4,0.6s1-0.2,1.4-0.6c0.4-0.4,0.6-0.9,0.6-1.4v-14H497.5z"/>
	<path d="M501.5,27.3v-18h10v2h-6v6h4v2h-4v6h6v2H501.5z"/>
	<path d="M527.5,23.3c-0.2,2.7-1.5,4-4,4h-4c-1.1,0-2-0.4-2.8-1.2s-1.2-1.7-1.2-2.8v-10c0-1.1,0.4-2,1.2-2.8
		c0.8-0.8,1.7-1.2,2.8-1.2h4c2.5,0,3.8,1.3,4,4h-2c-0.2-1.3-0.8-2-2-2h-2c-0.5,0-1,0.2-1.4,0.6c-0.4,0.4-0.6,0.9-0.6,1.4v10
		c0,0.5,0.2,1,0.6,1.4c0.4,0.4,0.9,0.6,1.4,0.6h2c1.2,0,1.8-0.7,2-2H527.5z"/>
	<path d="M533.5,27.3v-16h-4v-2h12v2h-4v16H533.5z"/>
</g>
</svg>
